<?xml version="1.0" encoding="UTF-8"?>
<!-- Created with Inkscape (http://www.inkscape.org/) -->
<svg width="1920" height="720" version="1.1" viewBox="0 0 508 190.5" xmlns="http://www.w3.org/2000/svg">
 <rect x="-.0018117" y="-7.1054e-15" width="508" height="190.5" fill="#fff" stroke-width=".63501"/>
 <g transform="matrix(2.4 0 0 2.4 -.0016694 3.2195e-5)" stroke-width=".26458" aria-label="tgast">
  <path d="m90.972 43.021q-0.8509 0-1.3462-0.4699-0.4953-0.4826-0.4953-1.3081v-4.2926h-2.0193v-0.9144h2.0193v-1.9685h1.016v1.9685h2.8702v0.9144h-2.8702v4.2926q0 0.4064 0.2159 0.635 0.2286 0.2286 0.6096 0.2286h1.9812v0.9144zm5.4589 2.286v-0.9144h1.9431q0.635 0 0.9906-0.3556 0.3556-0.3429 0.3556-0.9652v-0.6223l0.0254-1.2192h-0.0254q-0.127 0.6096-0.6223 0.9525t-1.2573 0.3429q-1.0668 0-1.6891-0.6731-0.6223-0.6858-0.6223-1.8796v-1.4859q0-1.1811 0.6223-1.8796t1.6891-0.6985q0.762 0 1.2573 0.3556t0.6223 0.9779h0.0127v-1.2065h0.9906v7.0358q0 1.0541-0.635 1.6383-0.6223 0.5969-1.7272 0.5969zm1.7018-3.6195q0.7366 0 1.1684-0.4572 0.4318-0.4699 0.4318-1.2954v-1.397q0-0.8255-0.4318-1.2827-0.4191-0.4699-1.1684-0.4699-0.762 0-1.1811 0.4445t-0.4191 1.2192v1.5748q0 0.7747 0.4191 1.2192t1.1811 0.4445z" fill="#0ea5e9"/>
  <path d="m105.48 43.148q-1.0922 0-1.7145-0.5969-0.6223-0.6096-0.6223-1.5748 0-0.635 0.2794-1.1049 0.2921-0.4826 0.8001-0.7493 0.508-0.2794 1.1684-0.2794h2.2225v-0.5842q0-1.4732-1.5494-1.4732-0.6985 0-1.1303 0.2794-0.4191 0.2794-0.4572 0.7493h-1.0033q0.0635-0.8255 0.7493-1.3589 0.6985-0.5461 1.8415-0.5461 1.2319 0 1.8923 0.6096t0.6604 1.7145v4.7879h-0.9906v-1.3081h-0.0127q-0.1016 0.6604-0.6731 1.0541-0.5588 0.381-1.4605 0.381zm0.254-0.8636q0.8636 0 1.3716-0.4191 0.508-0.4318 0.508-1.1684v-1.0541h-2.1336q-0.5842 0-0.9525 0.3683-0.3683 0.3556-0.3683 0.9271 0 0.6096 0.4191 0.9779t1.1557 0.3683zm7.8846 0.8509q-1.1176 0-1.7526-0.5207-0.635-0.5334-0.6604-1.4605h1.016q0.0254 0.508 0.3937 0.8001t1.0033 0.2921h0.6477q0.6604 0 1.016-0.2921 0.3683-0.3048 0.3683-0.8382 0-0.4826-0.2413-0.7747-0.2286-0.3048-0.6858-0.3556l-1.8288-0.254q-0.762-0.1143-1.1811-0.5842-0.4191-0.4826-0.4191-1.2827 0-0.9017 0.6223-1.4224t1.7018-0.5207h0.5969q1.0033 0 1.6256 0.4953 0.635 0.4953 0.6985 1.2954h-1.016q-0.0508-0.3937-0.4064-0.6604-0.3429-0.2667-0.9017-0.2667h-0.5969q-0.6223 0-0.9779 0.2921t-0.3556 0.7874q0 0.8128 0.8509 0.9271l1.7272 0.2413q0.8636 0.1143 1.3208 0.6477t0.4572 1.4097q0 0.9652-0.635 1.5113-0.6223 0.5334-1.7399 0.5334zm8.8879-0.1143q-0.8509 0-1.3462-0.4699-0.4953-0.4826-0.4953-1.3081v-4.2926h-2.0193v-0.9144h2.0193v-1.9685h1.016v1.9685h2.8702v0.9144h-2.8702v4.2926q0 0.4064 0.2159 0.635 0.2286 0.2286 0.6096 0.2286h1.9812v0.9144z" fill="#0f172a"/>
 </g>
</svg>
